<svg width="48" height="48" viewBox="0 0 48 48" fill="none" xmlns="http://www.w3.org/2000/svg">
<path fill-rule="evenodd" clip-rule="evenodd" d="M2.93826 3.78082C3.05309 2.2132 4.35842 1 5.93024 1H45C45.8337 1 46.6299 1.34695 47.1975 1.95764C47.765 2.56833 48.0529 3.38768 47.992 4.21918L45.0618 44.2192C44.9469 45.7868 43.6416 47 42.0698 47H3.00001C2.16628 47 1.37015 46.653 0.802562 46.0424C0.23497 45.4317 -0.0528869 44.6123 0.00802525 43.7808L2.93826 3.78082ZM5.93024 4H45L42.0698 44H3.00001L5.93024 4Z" fill="#1B344B"/>
<path fill-rule="evenodd" clip-rule="evenodd" d="M11.9393 13.9393C11.3536 14.5251 11.3536 15.4749 11.9393 16.0607L19.8787 24L11.9393 31.9393C11.3536 32.5251 11.3536 33.4749 11.9393 34.0607C12.5251 34.6464 13.4749 34.6464 14.0607 34.0607L23.0607 25.0607C23.6464 24.4749 23.6464 23.5251 23.0607 22.9393L14.0607 13.9393C13.4749 13.3536 12.5251 13.3536 11.9393 13.9393Z" fill="#1B344B"/>
<path fill-rule="evenodd" clip-rule="evenodd" d="M22.5 33.5C22.5 32.6716 23.1716 32 24 32H35C35.8284 32 36.5 32.6716 36.5 33.5C36.5 34.3284 35.8284 35 35 35H24C23.1716 35 22.5 34.3284 22.5 33.5Z" fill="#1B344B"/>
</svg>
